# xmcd
#
# Track frame offsets:
#	150
#	4356
#	19414
#	35030
#	53978
#	66599
#	82623
#	96864
#	107417
#	109937
#	126307
#	147894
#	162802
#
# Disc length: 2332 seconds
#
# Revision: 1
# Processed by: cddbd v1.5.1PL0 Copyright (c) Steve Scherf et al.
# Submitted via: audiograbber 1.83.01
#
DISCID=b0091a0d
DTITLE=Do or Die - Trinacria
DYEAR=2003
DGENRE=Metal Hardcore
TTITLE0=La musica de la bella famiglia
TTITLE1=Blackened soul
TTITLE2=time has come
TTITLE3=Blackthrough
TTITLE4=I'm the only master of my destiny
TTITLE5=the meaning of honor
TTITLE6=heart full of pain
TTITLE7=the winning card
TTITLE8=intermezzo
TTITLE9=ultimatum
TTITLE10=angel of pain, demons of war
TTITLE11=darkened skies
TTITLE12=Bella Famiglia
EXTD=for Hatebreed Fans!
EXTT0=
EXTT1=
EXTT2=
EXTT3=
EXTT4=
EXTT5=
EXTT6=
EXTT7=
EXTT8=
EXTT9=
EXTT10=
EXTT11=
EXTT12=
PLAYORDER=
